<svg width="22" height="31" viewBox="0 0 22 31" fill="none" xmlns="http://www.w3.org/2000/svg">
<path d="M10.5016 4.77273C13.66 4.77273 16.2289 7.34165 16.2289 10.5C16.2289 11.0274 15.8018 11.4545 15.2744 11.4545C14.747 11.4545 14.3198 11.0274 14.3198 10.5C14.3198 8.39403 12.6064 6.68182 10.5016 6.68182C9.97426 6.68182 9.5471 6.25466 9.5471 5.72727C9.5471 5.19989 9.97426 4.77273 10.5016 4.77273ZM15.2708 27.3937C15.2708 27.5816 15.2153 27.7647 15.1109 27.9211L13.6487 30.1189C13.4715 30.385 13.1732 30.5449 12.854 30.5449H8.14989C7.83011 30.5449 7.53182 30.385 7.35523 30.1189L5.89298 27.9211C5.78918 27.7647 5.73369 27.581 5.7331 27.3937L5.73011 24.8176H15.2732L15.2708 27.3937ZM10.5016 0C16.6036 0 21.0016 4.94991 21.0016 10.5C21.0016 13.1471 20.0203 15.5621 18.4029 17.4073C17.4102 18.5403 15.8531 20.9153 15.2756 22.9055V22.9091H12.4119V22.9019C12.4125 22.6174 12.4549 22.3346 12.5402 22.0625C12.8737 21 13.9016 18.1984 16.2492 15.5197C17.4746 14.1219 18.1297 12.3488 18.135 10.5C18.147 6.1067 14.5752 2.86364 10.5016 2.86364C6.29091 2.86364 2.86528 6.28926 2.86528 10.5C2.86528 12.3476 3.53585 14.1303 4.75349 15.5197C7.08676 18.1811 8.11946 20.9767 8.45832 22.05C8.54578 22.3259 8.59045 22.6137 8.59077 22.9031V22.9091H5.72713V22.9061C5.14963 20.9153 3.59253 18.5403 2.5998 17.4079C0.98304 15.5621 0.00164795 13.1471 0.00164795 10.5C0.00164795 4.70114 4.70279 0 10.5016 0Z" fill="#999797"/>
</svg>
