<svg width="35" height="38" viewBox="0 0 35 38" fill="none" xmlns="http://www.w3.org/2000/svg">
<path d="M17.5016 11.7567C20.66 11.7567 23.2289 14.317 23.2289 17.4648C23.2289 17.9904 22.8018 18.4161 22.2744 18.4161C21.747 18.4161 21.3198 17.9904 21.3198 17.4648C21.3198 15.3659 19.6064 13.6594 17.5016 13.6594C16.9743 13.6594 16.5471 13.2337 16.5471 12.7081C16.5471 12.1825 16.9743 11.7567 17.5016 11.7567ZM22.2708 34.3018C22.2708 34.4891 22.2153 34.6717 22.1109 34.8275L20.6487 37.0179C20.4715 37.2831 20.1732 37.4425 19.854 37.4425H15.1499C14.8301 37.4425 14.5318 37.2831 14.3552 37.0179L12.893 34.8275C12.7892 34.6717 12.7337 34.4885 12.7331 34.3018L12.7301 31.7344H22.2732L22.2708 34.3018ZM17.5016 7C23.6036 7 28.0016 11.9333 28.0016 17.4648C28.0016 20.103 27.0203 22.5099 25.4029 24.349C24.4102 25.4781 22.8531 27.8452 22.2756 29.8287V29.8323H19.4119V29.8252C19.4125 29.5415 19.4549 29.2597 19.5402 28.9886C19.8737 27.9296 20.9016 25.1374 23.2492 22.4677C24.4746 21.0746 25.1297 19.3074 25.135 17.4648C25.147 13.0862 21.5752 9.85404 17.5016 9.85404C13.2909 9.85404 9.86528 13.2682 9.86528 17.4648C9.86528 19.3063 10.5359 21.0829 11.7535 22.4677C14.0868 25.1202 15.1195 27.9064 15.4583 28.9761C15.5458 29.2511 15.5904 29.5379 15.5908 29.8264V29.8323H12.7271V29.8293C12.1496 27.8452 10.5925 25.4781 9.5998 24.3496C7.98304 22.5099 7.00165 20.103 7.00165 17.4648C7.00165 11.6854 11.7028 7 17.5016 7Z" fill="#F2BD01"/>
<rect x="17.2237" width="1.9" height="5.6" rx="0.95" transform="rotate(2.27227 17.2237 0)" fill="#F2BD01"/>
<rect x="5.00165" y="4.08698" width="1.9" height="5.6" rx="0.95" transform="rotate(-34.8969 5.00165 4.08698)" fill="#F2BD01"/>
<rect x="0.00164795" y="12.6559" width="1.9" height="5.6" rx="0.95" transform="rotate(-60.6398 0.00164795 12.6559)" fill="#F2BD01"/>
<rect x="0.0530396" y="22.0643" width="1.9" height="5.6" rx="0.95" transform="rotate(-90 0.0530396 22.0643)" fill="#F2BD01"/>
<rect x="28.8907" y="4" width="1.9" height="5.6" rx="0.95" transform="rotate(43.9848 28.8907 4)" fill="#F2BD01"/>
<rect x="33.5628" y="10" width="1.9" height="5.6" rx="0.95" transform="rotate(54.5373 33.5628 10)" fill="#F2BD01"/>
<rect x="34.6016" y="20" width="1.9" height="5.6" rx="0.95" transform="rotate(90 34.6016 20)" fill="#F2BD01"/>
</svg>
