<svg width="49" height="51" viewBox="0 0 49 51" fill="none" xmlns="http://www.w3.org/2000/svg">
<ellipse cx="24.5" cy="25.5" rx="24.5" ry="25.5" fill="white"/>
<path d="M48.5 25.5C48.5 39.3262 37.7362 50.5 24.5 50.5C11.2638 50.5 0.5 39.3262 0.5 25.5C0.5 11.6738 11.2638 0.5 24.5 0.5C37.7362 0.5 48.5 11.6738 48.5 25.5Z" stroke="#1D425C" stroke-opacity="0.5"/>
<path d="M33.7097 10.9716C37.5202 14.2752 40 19.6784 40 25.7936C40 35.8365 33.2984 43.9779 25.0302 44C16.7742 44.022 10.0121 35.8512 10 25.823C9.99396 19.7077 12.4738 14.2899 16.2782 10.979C16.9859 10.3696 17.9718 10.6266 18.3952 11.5442L19.3508 13.6071C19.7077 14.378 19.5383 15.3544 18.9516 15.8829C16.4415 18.144 14.8387 21.7266 14.8387 25.7863C14.8327 32.5623 19.3448 38.1269 25 38.1269C30.5403 38.1269 35.1976 32.6797 35.1613 25.7129C35.1431 21.9101 33.6673 18.2395 31.0423 15.8756C30.4556 15.347 30.2923 14.3706 30.6492 13.6071L31.6048 11.5442C32.0282 10.6339 33.0081 10.3623 33.7097 10.9716ZM27.4194 26.3809V8.7619C27.4194 7.78551 26.7722 7 25.9677 7H24.0323C23.2278 7 22.5807 7.78551 22.5807 8.7619V26.3809C22.5807 27.3573 23.2278 28.1428 24.0323 28.1428H25.9677C26.7722 28.1428 27.4194 27.3573 27.4194 26.3809Z" fill="#3C8C20"/>
</svg>
