<svg width="118" height="118" viewBox="0 0 118 118" fill="none" xmlns="http://www.w3.org/2000/svg">
<path d="M59 0C26.4144 0 0 26.4144 0 59C0 91.5856 26.4144 118 59 118C91.5856 118 118 91.5856 118 59C118 26.4144 91.5856 0 59 0ZM78.5771 85.0742C77.6492 85.9973 76.6762 86.9655 75.8864 87.7577C75.175 88.4715 74.6731 89.3517 74.4185 90.3057C74.0593 91.6522 73.769 93.013 73.2837 94.3191L69.1466 105.465C65.873 106.179 62.4853 106.581 59 106.581V100.067C59.4021 97.0645 57.1824 91.4405 53.6162 87.8743C52.1888 86.4469 51.3871 84.5104 51.3871 82.4906V74.8753C51.3871 72.1061 49.8954 69.5605 47.4712 68.2211C44.0525 66.3298 39.1898 63.6867 35.8591 62.0095C33.128 60.6344 30.6015 58.8834 28.3295 56.8351L28.1392 56.6638C26.5145 55.1972 25.0719 53.5406 23.8427 51.7297C21.6111 48.4538 17.976 43.0652 15.6136 39.5633C20.4835 28.7387 29.2597 20.0457 40.1652 15.3233L45.8773 18.1806C48.4085 19.4462 51.3871 17.6072 51.3871 14.7762V12.0879C53.2879 11.781 55.2221 11.5859 57.1896 11.5121L63.9222 18.2448C65.4091 19.7317 65.4091 22.1417 63.9222 23.6285L62.8064 24.7419L60.3465 27.2019C59.6043 27.9441 59.6043 29.1503 60.3465 29.8925L61.4623 31.0083C62.2046 31.7506 62.2046 32.9567 61.4623 33.699L59.5591 35.6022C59.2017 35.9589 58.7174 36.1591 58.2125 36.1589H56.0738C55.5789 36.1589 55.1031 36.3516 54.7463 36.6989L52.3863 38.9947C52.097 39.2764 51.9047 39.6428 51.8371 40.0409C51.7696 40.439 51.8302 40.8482 52.0104 41.2096L55.7193 48.6298C56.3521 49.8954 55.4314 51.3847 54.0183 51.3847H52.6765C52.2174 51.3847 51.7749 51.2182 51.4299 50.9184L49.2222 49.0009C48.7226 48.5675 48.1188 48.2716 47.4701 48.1423C46.8215 48.013 46.1504 48.0547 45.5228 48.2634L38.1073 50.7352C37.5412 50.924 37.0488 51.2862 36.7 51.7704C36.3511 52.2546 36.1635 52.8363 36.1637 53.4331C36.1637 54.5108 36.7727 55.4933 37.7362 55.9762L40.3722 57.2942C42.6108 58.4148 45.0803 58.9976 47.583 58.9976C50.0858 58.9976 52.9573 65.49 55.1959 66.6105H71.076C73.0958 66.6105 75.0299 67.4123 76.4597 68.8397L79.7166 72.0966C81.0772 73.4577 81.8414 75.3036 81.8411 77.2281C81.8406 78.6865 81.552 80.1303 80.9919 81.4768C80.4317 82.8233 79.6111 84.0458 78.5771 85.0742ZM99.2056 63.3417C97.8282 62.9968 96.6268 62.1522 95.8393 60.9698L91.5618 54.5536C90.9359 53.6162 90.6019 52.5143 90.6019 51.3871C90.6019 50.2599 90.9359 49.158 91.5618 48.2206L96.2223 41.231C96.7743 40.4055 97.5308 39.7346 98.4206 39.2921L101.509 37.7481C104.725 44.1525 106.581 51.3562 106.581 59C106.581 61.0626 106.405 63.0824 106.148 65.076L99.2056 63.3417Z" fill="#578EB7"/>
<path d="M67.2216 75.4102L60.5003 81.1731V87.3928C60.5003 87.5538 60.5617 87.7083 60.6711 87.8222C60.7805 87.936 60.9289 88 61.0836 88L65.1688 87.989C65.323 87.9882 65.4706 87.9239 65.5793 87.8101C65.6881 87.6963 65.7491 87.5423 65.7491 87.3818V83.7495C65.7491 83.5885 65.8106 83.434 65.92 83.3202C66.0294 83.2063 66.1777 83.1423 66.3324 83.1423H68.6656C68.8203 83.1423 68.9686 83.2063 69.078 83.3202C69.1874 83.434 69.2489 83.5885 69.2489 83.7495V87.3791C69.2486 87.459 69.2635 87.5382 69.2927 87.6121C69.322 87.686 69.3649 87.7531 69.4191 87.8097C69.4733 87.8663 69.5376 87.9112 69.6085 87.9418C69.6794 87.9725 69.7554 87.9882 69.8322 87.9882L73.9159 88C74.0706 88 74.219 87.936 74.3284 87.8222C74.4377 87.7083 74.4992 87.5538 74.4992 87.3928V81.1689L67.7794 75.4102C67.7004 75.344 67.6019 75.3078 67.5005 75.3078C67.399 75.3078 67.3006 75.344 67.2216 75.4102ZM77.8385 79.3271L74.7908 76.712V71.4554C74.7908 71.3346 74.7448 71.2188 74.6627 71.1334C74.5807 71.048 74.4694 71 74.3534 71H72.3119C72.1958 71 72.0846 71.048 72.0025 71.1334C71.9205 71.2188 71.8744 71.3346 71.8744 71.4554V74.211L68.6105 71.4156C68.2973 71.1472 67.9043 71.0005 67.4986 71.0005C67.093 71.0005 66.7 71.1472 66.3868 71.4156L57.1588 79.3271C57.1145 79.3652 57.0778 79.4121 57.0509 79.4649C57.024 79.5178 57.0074 79.5757 57.0019 79.6352C56.9965 79.6948 57.0024 79.7549 57.0193 79.8121C57.0362 79.8693 57.0638 79.9224 57.1004 79.9685L58.0301 81.145C58.0666 81.1912 58.1115 81.2295 58.1623 81.2577C58.2131 81.2858 58.2687 81.3033 58.326 81.309C58.3832 81.3148 58.441 81.3087 58.496 81.2912C58.551 81.2736 58.6022 81.245 58.6465 81.2068L67.2216 73.8543C67.3006 73.788 67.399 73.7518 67.5005 73.7518C67.6019 73.7518 67.7004 73.788 67.7794 73.8543L76.3548 81.2068C76.3991 81.245 76.4501 81.2737 76.5051 81.2913C76.56 81.3088 76.6177 81.315 76.6749 81.3094C76.7321 81.3037 76.7877 81.2864 76.8385 81.2584C76.8893 81.2304 76.9343 81.1922 76.9709 81.1461L77.9005 79.9696C77.9371 79.9233 77.9645 79.8699 77.9812 79.8124C77.9979 79.755 78.0036 79.6947 77.9978 79.635C77.9921 79.5753 77.975 79.5173 77.9477 79.4645C77.9203 79.4117 77.8832 79.365 77.8385 79.3271Z" fill="#1D425C"/>
<path d="M43.45 20H31.55C30.1422 20 29 21.1422 29 22.55V44.65C29 46.0578 30.1422 47.2 31.55 47.2H43.45C44.8578 47.2 46 46.0578 46 44.65V22.55C46 21.1422 44.8578 20 43.45 20ZM37.5 45.5C36.5597 45.5 35.8 44.7403 35.8 43.8C35.8 42.8597 36.5597 42.1 37.5 42.1C38.4403 42.1 39.2 42.8597 39.2 43.8C39.2 44.7403 38.4403 45.5 37.5 45.5Z" fill="#1D425C"/>
<path d="M100.085 3.41259C99.7246 3.05625 99.7833 2.43131 100.232 2.19172C104.027 0.15057 108.861 0.731249 112.065 3.93528C115.268 7.13854 115.85 11.9686 113.808 15.7678C113.569 16.2119 112.944 16.2707 112.587 15.9143L106.883 10.2106L105.546 11.5482C105.579 11.6756 105.624 11.7924 105.624 11.9297C105.624 12.2388 105.532 12.5409 105.36 12.7979C105.189 13.0549 104.944 13.2552 104.659 13.3734C104.373 13.4917 104.059 13.5227 103.756 13.4624C103.453 13.4021 103.174 13.2532 102.956 13.0347C102.737 12.8161 102.589 12.5377 102.528 12.2345C102.468 11.9314 102.499 11.6172 102.617 11.3317C102.735 11.0461 102.936 10.8021 103.193 10.6304C103.45 10.4586 103.752 10.367 104.061 10.367C104.197 10.367 104.315 10.4105 104.442 10.4448L105.78 9.10644L100.085 3.41259ZM90.0012 11.2018C89.9953 11.0953 90.011 10.9887 90.0476 10.8885C90.0841 10.7883 90.1406 10.6966 90.2137 10.619C90.2868 10.5413 90.3749 10.4793 90.4727 10.4368C90.5705 10.3943 90.6759 10.3721 90.7826 10.3716H92.3506C92.5488 10.3722 92.7394 10.4482 92.8835 10.5843C93.0277 10.7204 93.1146 10.9062 93.1266 11.1041C93.4929 17.4282 98.5716 22.5559 104.891 22.8977C105.09 22.9083 105.276 22.9949 105.413 23.1395C105.549 23.2841 105.625 23.4757 105.624 23.6745V25.2174C105.623 25.324 105.601 25.4295 105.559 25.5273C105.516 25.6252 105.454 25.7133 105.376 25.7864C105.299 25.8595 105.207 25.916 105.107 25.9525C105.007 25.989 104.9 26.0048 104.793 25.9987C96.8235 25.5791 90.4163 19.1718 90.0012 11.2018ZM94.6893 11.2163C94.6821 11.1083 94.697 11.0001 94.7332 10.8981C94.7694 10.7962 94.8261 10.7028 94.8998 10.6236C94.9736 10.5445 95.0627 10.4813 95.1618 10.4379C95.2609 10.3946 95.3678 10.372 95.476 10.3716H97.0486C97.2442 10.373 97.4322 10.4474 97.5757 10.5803C97.7193 10.7131 97.808 10.8947 97.8246 11.0896C98.1619 14.8499 101.151 17.8723 104.901 18.1806C105.097 18.1947 105.281 18.2825 105.415 18.4265C105.549 18.5705 105.624 18.7599 105.624 18.9566V20.5247C105.624 20.6329 105.601 20.74 105.558 20.8393C105.515 20.9386 105.452 21.0279 105.372 21.1016C105.293 21.1754 105.2 21.232 105.097 21.2679C104.995 21.3039 104.887 21.3184 104.779 21.3106C99.4018 20.8955 95.0998 16.5934 94.6893 11.2163Z" fill="#1D425C"/>
<line x1="48.8704" y1="30.5171" x2="89.8704" y2="19.5171" stroke="#1D425C" stroke-dasharray="2 2"/>
<line x1="100.441" y1="28.2364" x2="78.4406" y2="69.2364" stroke="#1D425C" stroke-dasharray="2 2"/>
</svg>
